<?xml version="1.0" encoding="utf-8"?>
<!-- Generator: Adobe Illustrator 23.0.6, SVG Export Plug-In . SVG Version: 6.00 Build 0)  -->
<svg version="1.1" id="Layer_1" xmlns="http://www.w3.org/2000/svg" xmlns:xlink="http://www.w3.org/1999/xlink" x="0px" y="0px"
	 viewBox="0 0 3600 3600" style="enable-background:new 0 0 3600 3600;" xml:space="preserve">
<style type="text/css">
	.st0{fill:#FF4438;}
	.st1{fill:#FFFFFF;}
</style>
<path class="st0" d="M5421.42,1320.03h-309.04c-34.28,0-62.07-27.79-62.07-62.07V948.92c0-34.28,27.79-62.07,62.07-62.07h309.04
	c34.28,0,62.07,27.79,62.07,62.07v309.04C5483.49,1292.24,5455.7,1320.03,5421.42,1320.03z"/>
<g>
	<path class="st1" d="M1578.12,3489.05c24.8,4.07,51.06,7.69,78.35,10.55c60.32-81.18,187.8-301.9,233.84-760.68l-134.79-13.53
		c-54.05,538.55-223.38,712.93-225.09,714.62l47.23,48.55L1578.12,3489.05z"/>
	<path class="st1" d="M1928.74,3147.52c0.26,108.87-2.66,231.9-11.34,360.82c46.64-0.1,95.19-3.98,142.93-10.11
		c3.39-63.41,18.39-392.84-11.92-779.34l-135.18,9.57C1926.8,2901.69,1930.62,3038.97,1928.74,3147.52z"/>
	<g>
		<path class="st1" d="M1800,3600C807.48,3600,0,2792.52,0,1800S807.48,0,1800,0s1800,807.48,1800,1800S2792.52,3600,1800,3600z
			 M1800,136.39c-917.32,0-1663.61,746.3-1663.61,1663.61S882.68,3463.61,1800,3463.61S3463.61,2717.31,3463.61,1800
			S2717.32,136.39,1800,136.39z"/>
	</g>
	<path class="st1" d="M1800,1800"/>
	<path class="st1" d="M1115.2,556.73"/>
	<path class="st1" d="M551.41,2485.91c0.04-42.69,20.16-87.05,52.25-130.7c-3.44-1.95-6.74-3.99-9.89-6.13l0,0
		c-152.87-103.74-169.95-188.16-150.46-338.09c7.94-61.5-5.36-131.88-19.43-206.37c-32.73-173.98-45.32-292.37,73.4-350.73
		c19.57-9.61,39.55-17.7,59.68-24.55c-28.99-49.4-43.72-94.35-50.87-130.91c-23.68,8.36-47.29,18.13-70.64,29.6
		C212,1437.73,254.8,1664.78,286.05,1830.55l0.39,2.06c11.69,62.49,22.74,121.51,17.67,160.42
		c-24.7,191.55,1.92,330.19,210.75,472.13C524.84,2471.94,536.99,2479.04,551.41,2485.91L551.41,2485.91z"/>
	<path class="st1" d="M1189.06,556.73c14.13,0,38.86,19.2,69.42,49.08c27.94-55.93,69.69-100.77,125.27-133.96
		c14.04-5.87,115.44-46.04,212.05-24.02c106.04,24.24,176.67,2.61,245.17-18.38l4.46-1.34c28.63-8.59,55.67-16.71,86.93-21.8
		c26.45-4.32,93.22,3.51,156.53,64.05c24.77,23.43,50.37,56.5,71.79,102.69c46.66-23.46,91.21-41.12,128.85-54.06
		c-28.55-63.48-63.42-109.88-97-143.47c-1.13-1.13-2.3-2.24-3.46-3.35c-1.06-1.02-2.11-2.02-3.29-3.19
		c-96.36-92.23-208.9-112.09-275.96-101.07c-43.13,6.95-80.11,18.33-109.88,27.49c-59.95,18.31-103.26,31.54-172.92,15.73
		c-153.38-35.08-298.48,31.62-304.09,34.26c-2.26,0.91-4.41,2.04-6.4,3.23c-98.36,57.3-166.98,139.47-205.18,244.97
		C1140.9,571.8,1168.69,556.73,1189.06,556.73z"/>
	<path class="st1" d="M3303.62,1800c-117.87-260.87,30.77-278.19-45.54-476.67c-19.33-38-45.44-74.27-79.54-106.38l-0.74-0.68
		c-35.19-32.9-82.37-64.58-144.95-86.79c-14.4,39.38-36,83.02-61.38,127.67c43.63,13.24,80.79,33.74,110.66,61.61
		c86.92,81.2,90.15,198.91,71.03,258.16c-31.47,97.1-2.22,174.64,23.63,243.15c35.02,92.54,60.33,159.39-52.42,288.06
		c-17.43,19.89-46.6,48.1-89.06,73.96c40.21,71.19,60.49,126.87,60.99,128.25c49.93-28.85,94.76-65.45,133.55-109.74
		c40.04-45.69,81.94-101.81,103.05-170.45C3345.81,1960.17,3340.85,1882.39,3303.62,1800z"/>
	<g>
		<path class="st1" d="M2078.7,1296.49c-126.35-22.71-305.99,8.4-390.42,111.01c-12.63,15.4-24.86,34.54-33.45,57.45
			c-37.43-47.44-83.5-90.51-136.07-114.97c-52.63-24.5-106.65-27.31-156.1-8.3c-55.54,21.39-95.01,60.86-114.44,114.35
			c-42.44,117.15,21.82,273.39,83.38,383.94c43.7,78.54,102.87,126.71,162.71,154.88c-61.03,34.81-102.35,75.2-121.85,120.17
			c-19.64,44.89-16.33,91.3,9.59,134.21c26.11,43.34,80.26,71.24,156.56,80.66c125.89,15.5,307.84-20.66,412.1-119.74
			c20.23-19.24,36.03-38.74,48.33-57.98c49.12,61.95,113.59,106.98,191.67,84.36c78.08-22.65,129.19-123.77,129.19-250.81
			c0-9.49-0.26-19.24-0.79-29.06c-7.6-125.56-69.95-277.16-216.6-347.21c98.78-65.72,126.21-127.77,126.21-176.43
			c0-14.77-2.51-28.36-6.34-40.3C2207.09,1344.62,2156.12,1310.44,2078.7,1296.49z M1862.63,2129.95
			c-71.34,67.97-215.41,97.72-307.84,86.31c-45.55-5.59-62.61-18.61-65.32-23.11c-7.41-12.2-8.27-22.68-2.91-34.98
			c15.08-34.52,81.06-85.19,221.1-123.84c2.84-0.79,5.48-1.98,8.13-3.14c25.92,9.52,53.82,15,82.98,15
			c40.66,0,79-10.24,112.66-28.03C1915,2047.9,1907.06,2087.64,1862.63,2129.95z M2200.22,1964c5.49,91.67-24.99,151.64-42.18,156.6
			c-39.47,11.44-108.7-93.46-148.17-198.61c19.5-34.81,30.74-74.95,30.74-117.65c0-34.98-7.6-68.14-21.02-98.15
			C2086.7,1728.85,2189.9,1791.6,2200.22,1964z M1919.69,1804.33c0,66.65-54.28,120.92-120.92,120.92c-66.72,0-121-54.28-121-120.92
			c0-66.68,54.28-120.99,121-120.99C1865.4,1683.34,1919.69,1737.65,1919.69,1804.33z M1621.44,1640.39
			c-40,43.11-64.6,100.66-64.6,163.94c0,32.96,6.68,64.46,18.65,93.02c-46.61-14.58-99.64-46.88-138.25-116.23
			c-67.64-121.42-95.74-227.5-75.31-283.87c7.41-20.62,21.09-33.78,44.17-42.71c11.9-4.56,31.27-9.02,61.75,5.12
			C1527.82,1487.57,1589.57,1569.42,1621.44,1640.39z M2112.62,1425.58c12.89,46.64-106.84,121.55-195.44,155.7
			c-4.23,1.69-8.07,3.8-11.71,6.31c-32.2-16-68.43-25.19-106.71-25.19c-12.97,0-25.52,1.33-37.96,3.34
			c-13.36-56.43,8.92-97.95,68.16-128.99C1938.6,1379.3,2092.32,1398.08,2112.62,1425.58z"/>
		<path class="st1" d="M2063.76,525.53c-127.47,97.15-209.5,232.27-249.29,309.69c-36.73-18.09-80.15-25.86-129.2-23.1
			c-34.12,1.77-68.29,10.33-101.73,25.47c-66.05-97.95-203.72-264.79-411.01-335.48c-235.56-80.41-365.84,110.4-460.96,249.71
			l-1.18,1.73c-35.92,52.45-69.84,102-100.94,125.93c-152.91,117.98-232.12,234.84-184.82,482.87
			c15.55,81.29,89.61,242.58,409.79,413.69c-13,31.98-20.3,69.9-21.72,112.95c-0.08,3.18-0.08,6.17-0.08,9.26
			c0,38.19,7.68,76.32,22.84,113.48c-167.68,103.07-360.61,272.17-345.79,499.23c11.96,181.04,157.52,320.51,229.14,351.72
			c59.39,25.76,107.8,80.3,121.87,97.24c56.42,90.03,138.4,160.94,230.89,199.73c112.25,47.17,233.17,45.04,349.66-6.14
			c185.36-81.23,311.04-298.77,360.4-397.88c21,10.12,43.79,17.21,67.69,21.06c41.78,8.03,83.36,6.72,123.69-3.88
			c23.52,36.92,61.13,89.45,112.2,140.64c128.91,129.58,283.24,192.39,446.3,181.62c60.62-3.99,129.94-14.05,193.4-47.66
			c58.59-40.35,110.09-98.86,142.02-183.44c101.12-267.81,218.47-174.95,304.86-369.26c13.2-40.53,20.39-84.65,18.98-131.47
			l-0.04-1.01c-4.75-141.17-89.46-347.81-464.19-533.75c25.55-37.42,38.48-82.36,38.48-133.77c0-11.58-0.74-23.81-2.17-36.31
			c-1.43-12.77-3.95-25.69-7.69-39.33c275.36-223.69,333.38-421.33,333.38-548.03c0-1.6-0.04-3.21-0.08-4.82
			c-0.03-1.46-0.07-2.92-0.07-4.58c-2.92-133.36-68.45-226.98-123.67-266.61c-35.41-25.58-69.6-43.68-97.14-58.26
			c-55.34-29.45-95.32-50.72-133.4-111.15c-83.65-133.27-233.42-188.7-239.25-190.8c-2.24-0.95-4.56-1.67-6.81-2.24
			C2339.05,393.25,2196.28,424.53,2063.76,525.53z M716.85,1533.37c-89.77-70.37-143.14-138.61-154.35-197.31v0
			c-34.74-181.45,12.88-253.23,132.67-345.46c49.1-37.87,89.46-97.04,132.19-159.67c99.88-146.17,174.7-238.78,299.9-196.1
			c174.37,59.52,293.98,213.36,341.33,283.8c-63.08,61.11-111.6,138.18-142.85,196.01c-11.54-8.26-23.83-15.18-36.65-20.63
			c-58.32-24.9-124.2-19.37-195.76,16.41c-3.94,1.97-7.76,4.37-11.36,7.14c-93.64,72.15-143.14,182.68-143.14,319.63
			c0,84.87,19,166.74,36.29,223.67c-12.62,2.27-25.12,5.84-37.33,10.66C897.76,1651.52,804.08,1601.75,716.85,1533.37z
			 M1364.85,3025.1L1364.85,3025.1c-173.67,76.19-329.62-16.73-407.41-143.08c-1.29-1.95-2.6-3.89-4-5.66
			c-3.08-3.98-76.62-97.98-178.77-142.5c-23.56-10.16-136.51-103.04-144.98-232.16c-8.36-125.67,88.96-254.3,281.45-371.83
			c28.67,32.35,64.07,64.45,105.35,95.5c31.7,23.72,66.68,46.55,104.08,67.92c-19.48,34.3-29.73,72.76-29.73,111.83
			c0,111.99,79.89,202.7,203.55,231.08c124.63,28.51,269.35-2.75,372.43-35.72c2.82,15.11,6.93,29.75,12.27,43.68
			c-1.04,1.87-2.08,3.89-3.05,6.11C1674.82,2653.2,1552.64,2942.68,1364.85,3025.1z M3050.59,2367.05
			c4.04,118.88-76.91,204.4-132.32,232.77c-90.91,46.41-125.06,121.92-155.22,188.65c-40.67,90.2-70.05,155.36-240.76,166.62
			c-75.49,4.98-266.82-9.48-424.3-247.78c80.47-64.52,140.03-158.7,177.38-230.52c43.83,27.49,97.21,35.5,158.74,23.81
			c4.71-0.87,9.23-2.21,13.31-3.92c84.2-34.14,184.55-117.84,184.55-322.78c0-0.08,0-0.16,0-0.24c0-92.39-20.9-185.69-39.55-250.56
			c1.16-0.37,2.33-0.75,3.5-1.14C2883.66,2050.11,3045.08,2208.1,3050.59,2367.05z M2623.53,1674.31c0.81,7.56,1.2,14.24,1.2,20.39
			c0,38.61-16.91,67.2-50.26,84.98c-5.43,1.74-10.37,4.02-15.05,6.93c-26.79,10.24-52.84,11.62-60.19,11.8
			c-22.96,0.42-44.31,12.09-57.12,31.24c-12.72,18.99-15.06,44.52-6.85,64.68c2.31,5.89,56.46,145.79,56.46,279.31
			c0,99.98-30.38,163.97-90.28,190.23c-51.86,7.67-68.39-15.33-73.02-35.7c-5.82-31.11-31.9-54.61-63.44-57.13
			c-31.56-2.45-61.01,16.63-71.61,46.37c-0.85,2.35-88.71,236.59-220.42,305.25c-32.7,17.02-65.59,22.44-97.73,16.11l-1.87,9.49
			l0.89-9.67c-0.56-0.11-1.12-0.22-1.48-0.27c-34.71-5.54-70.2-20.63-70.2-90.56c0-18.42,2.81-32.32,2.81-32.34
			c6-26.01-3.12-52.77-23.79-69.88c-20.34-16.72-49.01-20.6-73.43-9.71c-23.54,10.08-234.22,97.48-382.45,63.5
			c-59.22-13.57-94.58-48.79-94.58-94.21c0-29.43,15.4-57.27,40.18-72.67c21.96-13.6,34.84-38.91,32.98-64.74
			c-1.92-26.06-18.04-48.78-42.1-59.32c-46.43-20.1-123.56-62.58-188.13-116.17c-55.29-45.9-121.21-116.81-121.21-193.99l0.05-4.65
			c1.58-45.45,11.84-76.74,28.86-88.08c19.88-13.16,57.53-5.68,71.56-0.28c27.06,10.7,57.34,3.95,77.12-17.18
			c19.64-20.82,24.57-52.18,12.22-78.18c-6.5-14.21-63.46-142.66-63.46-272.69c0-90.42,27.96-159.11,83.11-204.19
			c29.76-13.97,53.77-17.37,71.39-10.07c26.47,10.91,39.46,46.51,39.46,46.48c8.72,28.5,34.65,48.37,64.51,49.45
			c29.77,1.08,57.04-16.86,67.87-44.63c14.23-36.55,52.6-117.7,106.17-190.06c43-58.09,109.31-128.14,181.02-131.96
			c34.35-1.84,59.43,4.48,74.55,18.78c23.44,22.19,26.94,64.48,26.94,87.72c0,15.93-1.65,27.29-1.65,27.3
			c-4.35,25.68,5.91,51.46,26.62,67.34c20.71,15.77,48.29,18.79,71.98,7.87c74.58-34.33,292.11-108.17,401.55-38.44
			c37.46,23.8,42.26,46.58,42.26,63.77c0,44.34-36.25,94.16-47.23,106.72l-0.7,0.71c-16.83,13.29-26.85,33.84-26.85,55.12
			c0,25.1,13.52,48.44,35.35,60.95c5.03,2.83,10.23,5.01,15,6.33C2369.02,1436.12,2608.62,1544.1,2623.53,1674.31z M2448.5,567.25
			c14.08,5.77,114.18,49.07,166.93,132.96c57.84,92.12,123.08,126.77,186.35,160.37l4.1,2.21c26.32,14.17,51.18,27.56,76.89,46.05
			c21.76,15.65,63.43,68.39,65.4,155.97c2.62,94.1-41.73,244.28-262.19,429.45c-35.74-41.58-83.37-81.21-141.7-117.89
			c-32.66-20.58-68.27-40.06-105.98-57.98c22.94-45.58,36.98-95.31,36.98-131.85c0-51.98-18.6-125.79-107.23-182.18
			c-133.73-85.07-328.07-43.03-438.93-7.3c-3.03-16.45-7.4-32.33-13.05-47.37c22.14-48.58,79.79-162.91,169.19-255.65
			C2197.65,577.47,2319.85,534.81,2448.5,567.25z"/>
	</g>
</g>
</svg>
